<svg width="156" height="37" viewBox="0 0 156 37" fill="none" xmlns="http://www.w3.org/2000/svg">
<path d="M10.5627 4.46C11.1927 4.46 11.7227 4.505 12.1527 4.595C12.5827 4.685 13.0127 4.84 13.4427 5.06C13.5127 5.1 13.5527 5.135 13.5627 5.165C13.5727 5.195 13.5877 5.27 13.6077 5.39L13.7877 7.175C13.7877 7.205 13.7577 7.225 13.6977 7.235C13.6477 7.235 13.6177 7.22 13.6077 7.19C13.1477 5.52 12.1177 4.685 10.5177 4.685C9.67766 4.685 8.93766 4.87 8.29766 5.24C7.65766 5.61 7.16266 6.14 6.81266 6.83C6.46266 7.51 6.28766 8.305 6.28766 9.215C6.28766 10.085 6.47766 10.885 6.85766 11.615C7.24766 12.335 7.76766 12.905 8.41766 13.325C9.07766 13.745 9.79266 13.955 10.5627 13.955C11.3827 13.955 12.0477 13.755 12.5577 13.355C13.0677 12.955 13.4577 12.345 13.7277 11.525C13.7277 11.505 13.7527 11.495 13.8027 11.495C13.8727 11.495 13.9077 11.51 13.9077 11.54L13.7577 13.19C13.7477 13.31 13.7327 13.385 13.7127 13.415C13.6927 13.445 13.6527 13.48 13.5927 13.52C13.0727 13.77 12.5827 13.945 12.1227 14.045C11.6727 14.145 11.1527 14.195 10.5627 14.195C9.51266 14.195 8.57266 13.99 7.74266 13.58C6.92266 13.16 6.28266 12.575 5.82266 11.825C5.36266 11.075 5.13266 10.215 5.13266 9.245C5.13266 8.305 5.36766 7.475 5.83766 6.755C6.30766 6.025 6.95266 5.46 7.77266 5.06C8.60266 4.66 9.53266 4.46 10.5627 4.46ZM31.6609 13.82C31.6909 13.82 31.7059 13.85 31.7059 13.91C31.7059 13.97 31.6909 14 31.6609 14C31.3509 14 31.1059 13.995 30.9259 13.985L29.8909 13.97L28.7809 13.985C28.6109 13.995 28.3759 14 28.0759 14C28.0459 14 28.0309 13.97 28.0309 13.91C28.0309 13.85 28.0459 13.82 28.0759 13.82C28.4659 13.82 28.7509 13.795 28.9309 13.745C29.1109 13.695 29.2309 13.6 29.2909 13.46C29.3609 13.31 29.3959 13.085 29.3959 12.785V9.275H23.6359V12.785C23.6359 13.085 23.6659 13.31 23.7259 13.46C23.7959 13.6 23.9209 13.695 24.1009 13.745C24.2809 13.795 24.5659 13.82 24.9559 13.82C24.9759 13.82 24.9859 13.85 24.9859 13.91C24.9859 13.97 24.9759 14 24.9559 14C24.6459 14 24.4009 13.995 24.2209 13.985L23.1409 13.97L22.1059 13.985C21.9259 13.995 21.6759 14 21.3559 14C21.3359 14 21.3259 13.97 21.3259 13.91C21.3259 13.85 21.3359 13.82 21.3559 13.82C21.7359 13.82 22.0159 13.795 22.1959 13.745C22.3859 13.695 22.5109 13.6 22.5709 13.46C22.6409 13.31 22.6759 13.085 22.6759 12.785V5.84C22.6759 5.54 22.6409 5.32 22.5709 5.18C22.5109 5.04 22.3909 4.945 22.2109 4.895C22.0309 4.835 21.7509 4.805 21.3709 4.805C21.3509 4.805 21.3409 4.775 21.3409 4.715C21.3409 4.655 21.3509 4.625 21.3709 4.625L22.1359 4.64C22.5559 4.66 22.8909 4.67 23.1409 4.67C23.4309 4.67 23.7959 4.66 24.2359 4.64L24.9559 4.625C24.9759 4.625 24.9859 4.655 24.9859 4.715C24.9859 4.775 24.9759 4.805 24.9559 4.805C24.5759 4.805 24.2909 4.835 24.1009 4.895C23.9209 4.955 23.7959 5.06 23.7259 5.21C23.6659 5.35 23.6359 5.57 23.6359 5.87V8.96H29.3959V5.87C29.3959 5.57 29.3609 5.35 29.2909 5.21C29.2309 5.06 29.1109 4.955 28.9309 4.895C28.7509 4.835 28.4659 4.805 28.0759 4.805C28.0459 4.805 28.0309 4.775 28.0309 4.715C28.0309 4.655 28.0459 4.625 28.0759 4.625L28.7809 4.64C29.2209 4.66 29.5909 4.67 29.8909 4.67C30.1609 4.67 30.5059 4.66 30.9259 4.64L31.6609 4.625C31.6909 4.625 31.7059 4.655 31.7059 4.715C31.7059 4.775 31.6909 4.805 31.6609 4.805C31.2809 4.805 31.0009 4.835 30.8209 4.895C30.6409 4.945 30.5159 5.04 30.4459 5.18C30.3859 5.32 30.3559 5.54 30.3559 5.84V12.785C30.3559 13.085 30.3859 13.31 30.4459 13.46C30.5159 13.6 30.6409 13.695 30.8209 13.745C31.0009 13.795 31.2809 13.82 31.6609 13.82ZM48.6077 13.82C48.6277 13.82 48.6377 13.85 48.6377 13.91C48.6377 13.97 48.6277 14 48.6077 14H46.6727C46.4227 14 45.9527 13.585 45.2627 12.755C44.5727 11.925 43.7527 10.785 42.8027 9.335C42.5327 9.395 42.2527 9.425 41.9627 9.425C41.9027 9.425 41.6777 9.41 41.2877 9.38V12.785C41.2877 13.095 41.3177 13.32 41.3777 13.46C41.4377 13.6 41.5527 13.695 41.7227 13.745C41.9027 13.795 42.1827 13.82 42.5627 13.82C42.5927 13.82 42.6077 13.85 42.6077 13.91C42.6077 13.97 42.5927 14 42.5627 14C42.2527 14 42.0077 13.995 41.8277 13.985L40.7927 13.97L39.7727 13.985C39.5927 13.995 39.3377 14 39.0077 14C38.9877 14 38.9777 13.97 38.9777 13.91C38.9777 13.85 38.9877 13.82 39.0077 13.82C39.3877 13.82 39.6677 13.795 39.8477 13.745C40.0277 13.695 40.1477 13.6 40.2077 13.46C40.2777 13.31 40.3127 13.085 40.3127 12.785V5.84C40.3127 5.54 40.2827 5.32 40.2227 5.18C40.1627 5.04 40.0427 4.945 39.8627 4.895C39.6927 4.835 39.4177 4.805 39.0377 4.805C39.0077 4.805 38.9927 4.775 38.9927 4.715C38.9927 4.655 39.0077 4.625 39.0377 4.625L39.7727 4.64C40.1927 4.66 40.5327 4.67 40.7927 4.67C41.0127 4.67 41.2177 4.665 41.4077 4.655C41.5977 4.645 41.7577 4.635 41.8877 4.625C42.2577 4.595 42.5927 4.58 42.8927 4.58C43.6827 4.58 44.2927 4.76 44.7227 5.12C45.1527 5.48 45.3677 5.96 45.3677 6.56C45.3677 7.1 45.2077 7.59 44.8877 8.03C44.5777 8.46 44.1627 8.8 43.6427 9.05C44.4827 10.26 45.1877 11.21 45.7577 11.9C46.3377 12.58 46.8477 13.07 47.2877 13.37C47.7377 13.67 48.1777 13.82 48.6077 13.82ZM41.2877 9.02C41.5377 9.06 41.8327 9.08 42.1727 9.08C42.9527 9.08 43.5077 8.91 43.8377 8.57C44.1777 8.23 44.3477 7.705 44.3477 6.995C44.3477 6.215 44.1727 5.655 43.8227 5.315C43.4827 4.975 42.9827 4.805 42.3227 4.805C41.9327 4.805 41.6627 4.875 41.5127 5.015C41.3627 5.155 41.2877 5.44 41.2877 5.87V9.02ZM57.5905 12.785C57.5905 13.085 57.6205 13.31 57.6805 13.46C57.7405 13.6 57.8555 13.695 58.0255 13.745C58.2055 13.795 58.4855 13.82 58.8655 13.82C58.8955 13.82 58.9105 13.85 58.9105 13.91C58.9105 13.97 58.8955 14 58.8655 14C58.5655 14 58.3255 13.995 58.1455 13.985L57.0805 13.97L56.0455 13.985C55.8655 13.995 55.6205 14 55.3105 14C55.2805 14 55.2655 13.97 55.2655 13.91C55.2655 13.85 55.2805 13.82 55.3105 13.82C55.6905 13.82 55.9655 13.795 56.1355 13.745C56.3155 13.695 56.4355 13.6 56.4955 13.46C56.5655 13.31 56.6005 13.085 56.6005 12.785V5.84C56.6005 5.54 56.5655 5.32 56.4955 5.18C56.4355 5.04 56.3155 4.945 56.1355 4.895C55.9655 4.835 55.6905 4.805 55.3105 4.805C55.2805 4.805 55.2655 4.775 55.2655 4.715C55.2655 4.655 55.2805 4.625 55.3105 4.625L56.0455 4.64C56.4655 4.66 56.8105 4.67 57.0805 4.67C57.3805 4.67 57.7405 4.66 58.1605 4.64L58.8655 4.625C58.8955 4.625 58.9105 4.655 58.9105 4.715C58.9105 4.775 58.8955 4.805 58.8655 4.805C58.4955 4.805 58.2205 4.835 58.0405 4.895C57.8705 4.955 57.7505 5.06 57.6805 5.21C57.6205 5.35 57.5905 5.57 57.5905 5.87V12.785ZM67.9109 6.38C67.9109 6.77 68.0059 7.11 68.1959 7.4C68.3859 7.69 68.6159 7.935 68.8859 8.135C69.1659 8.325 69.5459 8.565 70.0259 8.855C70.5559 9.175 70.9609 9.44 71.2409 9.65C71.5309 9.86 71.7759 10.13 71.9759 10.46C72.1859 10.78 72.2909 11.165 72.2909 11.615C72.2909 12.095 72.1709 12.53 71.9309 12.92C71.6909 13.31 71.3359 13.62 70.8659 13.85C70.4059 14.07 69.8509 14.18 69.2009 14.18C68.4309 14.18 67.7259 14.005 67.0859 13.655C67.0359 13.625 67.0009 13.59 66.9809 13.55C66.9709 13.51 66.9609 13.45 66.9509 13.37L66.7559 11.33C66.7459 11.29 66.7659 11.265 66.8159 11.255C66.8759 11.245 66.9109 11.26 66.9209 11.3C67.0809 12.02 67.3759 12.64 67.8059 13.16C68.2459 13.68 68.8259 13.94 69.5459 13.94C70.0459 13.94 70.4659 13.805 70.8059 13.535C71.1559 13.255 71.3309 12.815 71.3309 12.215C71.3309 11.765 71.2309 11.375 71.0309 11.045C70.8309 10.715 70.5859 10.445 70.2959 10.235C70.0159 10.015 69.6309 9.76 69.1409 9.47C68.6609 9.18 68.2809 8.93 68.0009 8.72C67.7309 8.51 67.5009 8.245 67.3109 7.925C67.1209 7.605 67.0259 7.23 67.0259 6.8C67.0259 6.3 67.1559 5.875 67.4159 5.525C67.6859 5.165 68.0309 4.9 68.4509 4.73C68.8809 4.55 69.3359 4.46 69.8159 4.46C70.4059 4.46 70.9909 4.58 71.5709 4.82C71.7209 4.87 71.7959 4.955 71.7959 5.075L71.9009 6.8C71.9009 6.84 71.8759 6.86 71.8259 6.86C71.7759 6.86 71.7459 6.84 71.7359 6.8C71.6559 6.28 71.4409 5.8 71.0909 5.36C70.7409 4.91 70.2359 4.685 69.5759 4.685C69.0159 4.685 68.5959 4.85 68.3159 5.18C68.0459 5.5 67.9109 5.9 67.9109 6.38ZM82.0891 4.895C81.4591 4.895 80.9841 5.055 80.6641 5.375C80.3541 5.695 80.1291 6.24 79.9891 7.01C79.9891 7.03 79.9591 7.04 79.8991 7.04C79.8491 7.04 79.8241 7.03 79.8241 7.01C79.8641 6.65 79.9091 6.18 79.9591 5.6C80.0091 5.02 80.0341 4.585 80.0341 4.295C80.0341 4.245 80.0591 4.22 80.1091 4.22C80.1691 4.22 80.1991 4.245 80.1991 4.295C80.1991 4.515 80.4691 4.625 81.0091 4.625C81.8591 4.655 82.8641 4.67 84.0241 4.67C84.6141 4.67 85.2391 4.66 85.8991 4.64L86.9191 4.625C87.2791 4.625 87.5441 4.6 87.7141 4.55C87.8941 4.5 88.0091 4.4 88.0591 4.25C88.0691 4.21 88.0991 4.19 88.1491 4.19C88.1991 4.19 88.2241 4.21 88.2241 4.25C88.1941 4.54 88.1641 4.98 88.1341 5.57C88.1041 6.16 88.0891 6.64 88.0891 7.01C88.0891 7.03 88.0591 7.04 87.9991 7.04C87.9391 7.04 87.9091 7.03 87.9091 7.01C87.8791 6.23 87.7191 5.685 87.4291 5.375C87.1391 5.055 86.6591 4.895 85.9891 4.895C85.5391 4.895 85.2191 4.915 85.0291 4.955C84.8391 4.995 84.7091 5.08 84.6391 5.21C84.5691 5.34 84.5341 5.56 84.5341 5.87V12.785C84.5341 13.095 84.5691 13.32 84.6391 13.46C84.7091 13.6 84.8441 13.695 85.0441 13.745C85.2441 13.795 85.5591 13.82 85.9891 13.82C86.0191 13.82 86.0341 13.85 86.0341 13.91C86.0341 13.97 86.0191 14 85.9891 14C85.6591 14 85.3941 13.995 85.1941 13.985L84.0241 13.97L82.8991 13.985C82.6991 13.995 82.4241 14 82.0741 14C82.0541 14 82.0441 13.97 82.0441 13.91C82.0441 13.85 82.0541 13.82 82.0741 13.82C82.5041 13.82 82.8191 13.795 83.0191 13.745C83.2191 13.695 83.3541 13.6 83.4241 13.46C83.5041 13.31 83.5441 13.085 83.5441 12.785V5.84C83.5441 5.53 83.5091 5.315 83.4391 5.195C83.3691 5.065 83.2391 4.985 83.0491 4.955C82.8591 4.915 82.5391 4.895 82.0891 4.895ZM97.8959 12.785C97.8959 13.085 97.9259 13.31 97.9859 13.46C98.0459 13.6 98.1609 13.695 98.3309 13.745C98.5109 13.795 98.7909 13.82 99.1709 13.82C99.2009 13.82 99.2159 13.85 99.2159 13.91C99.2159 13.97 99.2009 14 99.1709 14C98.8709 14 98.6309 13.995 98.4509 13.985L97.3859 13.97L96.3509 13.985C96.1709 13.995 95.9259 14 95.6159 14C95.5859 14 95.5709 13.97 95.5709 13.91C95.5709 13.85 95.5859 13.82 95.6159 13.82C95.9959 13.82 96.2709 13.795 96.4409 13.745C96.6209 13.695 96.7409 13.6 96.8009 13.46C96.8709 13.31 96.9059 13.085 96.9059 12.785V5.84C96.9059 5.54 96.8709 5.32 96.8009 5.18C96.7409 5.04 96.6209 4.945 96.4409 4.895C96.2709 4.835 95.9959 4.805 95.6159 4.805C95.5859 4.805 95.5709 4.775 95.5709 4.715C95.5709 4.655 95.5859 4.625 95.6159 4.625L96.3509 4.64C96.7709 4.66 97.1159 4.67 97.3859 4.67C97.6859 4.67 98.0459 4.66 98.4659 4.64L99.1709 4.625C99.2009 4.625 99.2159 4.655 99.2159 4.715C99.2159 4.775 99.2009 4.805 99.1709 4.805C98.8009 4.805 98.5259 4.835 98.3459 4.895C98.1759 4.955 98.0559 5.06 97.9859 5.21C97.9259 5.35 97.8959 5.57 97.8959 5.87V12.785ZM116.526 13.82C116.566 13.82 116.586 13.85 116.586 13.91C116.586 13.97 116.566 14 116.526 14C116.336 14 116.041 13.99 115.641 13.97C115.241 13.95 114.951 13.94 114.771 13.94C114.551 13.94 114.271 13.95 113.931 13.97C113.611 13.99 113.366 14 113.196 14C113.156 14 113.136 13.97 113.136 13.91C113.136 13.85 113.156 13.82 113.196 13.82C113.566 13.82 113.836 13.785 114.006 13.715C114.176 13.645 114.261 13.525 114.261 13.355C114.261 13.215 114.196 13 114.066 12.71L112.731 9.875H109.161L108.216 12.095C108.076 12.435 108.006 12.71 108.006 12.92C108.006 13.23 108.126 13.46 108.366 13.61C108.616 13.75 108.986 13.82 109.476 13.82C109.526 13.82 109.551 13.85 109.551 13.91C109.551 13.97 109.526 14 109.476 14C109.296 14 109.036 13.99 108.696 13.97C108.316 13.95 107.986 13.94 107.706 13.94C107.446 13.94 107.146 13.95 106.806 13.97C106.506 13.99 106.256 14 106.056 14C106.006 14 105.981 13.97 105.981 13.91C105.981 13.85 106.006 13.82 106.056 13.82C106.336 13.82 106.571 13.77 106.761 13.67C106.961 13.56 107.146 13.375 107.316 13.115C107.496 12.845 107.691 12.46 107.901 11.96L111.066 4.49C111.086 4.46 111.121 4.445 111.171 4.445C111.221 4.445 111.251 4.46 111.261 4.49L114.801 11.945C115.141 12.685 115.431 13.185 115.671 13.445C115.911 13.695 116.196 13.82 116.526 13.82ZM109.281 9.575H112.596L110.841 5.87L109.281 9.575ZM133.284 4.625C133.314 4.625 133.329 4.655 133.329 4.715C133.329 4.775 133.314 4.805 133.284 4.805C132.864 4.805 132.559 4.92 132.369 5.15C132.179 5.38 132.084 5.755 132.084 6.275V14.18C132.084 14.2 132.059 14.215 132.009 14.225C131.959 14.235 131.924 14.23 131.904 14.21L125.004 5.855L124.869 5.705V12.365C124.869 12.885 124.959 13.26 125.139 13.49C125.329 13.71 125.629 13.82 126.039 13.82C126.069 13.82 126.084 13.85 126.084 13.91C126.084 13.97 126.069 14 126.039 14C125.789 14 125.599 13.995 125.469 13.985L124.719 13.97L123.954 13.985C123.814 13.995 123.609 14 123.339 14C123.319 14 123.309 13.97 123.309 13.91C123.309 13.85 123.319 13.82 123.339 13.82C123.769 13.82 124.074 13.71 124.254 13.49C124.434 13.26 124.524 12.885 124.524 12.365V5.345C124.134 4.985 123.739 4.805 123.339 4.805C123.309 4.805 123.294 4.775 123.294 4.715C123.294 4.655 123.309 4.625 123.339 4.625L123.894 4.64C124.014 4.65 124.179 4.655 124.389 4.655C124.609 4.655 124.789 4.65 124.929 4.64C125.069 4.63 125.179 4.625 125.259 4.625C125.339 4.625 125.394 4.645 125.424 4.685C125.464 4.715 125.524 4.79 125.604 4.91C125.724 5.09 125.844 5.255 125.964 5.405L131.739 12.5V6.275C131.739 5.755 131.649 5.38 131.469 5.15C131.299 4.92 131.009 4.805 130.599 4.805C130.579 4.805 130.569 4.775 130.569 4.715C130.569 4.655 130.579 4.625 130.599 4.625L131.184 4.64C131.484 4.66 131.729 4.67 131.919 4.67C132.099 4.67 132.349 4.66 132.669 4.64L133.284 4.625ZM152.258 8.3C152.508 8.3 152.633 8.455 152.633 8.765C152.633 9.015 152.563 9.26 152.423 9.5C152.293 9.73 152.113 9.92 151.883 10.07C151.653 10.22 151.408 10.295 151.148 10.295C150.868 10.295 150.508 10.19 150.068 9.98C149.888 11.35 149.428 12.395 148.688 13.115C147.958 13.825 147.048 14.18 145.958 14.18C145.278 14.18 144.668 14.02 144.128 13.7C143.598 13.37 143.183 12.935 142.883 12.395C142.583 11.855 142.433 11.27 142.433 10.64C142.433 10.37 142.463 10.1 142.523 9.83C142.643 9.3 142.873 8.82 143.213 8.39C143.553 7.96 143.953 7.625 144.413 7.385C144.873 7.145 145.338 7.025 145.808 7.025C146.308 7.025 146.718 7.165 147.038 7.445C147.638 6.775 147.938 6.19 147.938 5.69C147.938 5.5 147.908 5.355 147.848 5.255C147.788 5.145 147.703 5.045 147.593 4.955C147.513 4.875 147.453 4.805 147.413 4.745C147.373 4.685 147.353 4.6 147.353 4.49C147.353 4.34 147.398 4.22 147.488 4.13C147.578 4.04 147.693 3.995 147.833 3.995C148.053 3.995 148.233 4.095 148.373 4.295C148.513 4.495 148.583 4.76 148.583 5.09C148.583 5.65 148.373 6.22 147.953 6.8C147.533 7.38 147.028 7.925 146.438 8.435C145.848 8.935 145.108 9.52 144.218 10.19L143.348 10.865C143.448 11.405 143.653 11.885 143.963 12.305C144.273 12.715 144.643 13.035 145.073 13.265C145.513 13.485 145.973 13.595 146.453 13.595C147.363 13.595 148.118 13.275 148.718 12.635C149.328 11.995 149.698 11.075 149.828 9.875L149.543 9.725C149.123 9.505 148.788 9.345 148.538 9.245C148.288 9.135 148.048 9.08 147.818 9.08C147.678 9.08 147.563 9.11 147.473 9.17C147.393 9.23 147.353 9.305 147.353 9.395C147.353 9.515 147.393 9.655 147.473 9.815C147.553 9.995 147.593 10.125 147.593 10.205C147.593 10.295 147.563 10.38 147.503 10.46C147.443 10.53 147.353 10.565 147.233 10.565C147.113 10.565 147.013 10.53 146.933 10.46C146.863 10.38 146.828 10.255 146.828 10.085C146.828 9.825 146.908 9.575 147.068 9.335C147.238 9.095 147.453 8.905 147.713 8.765C147.983 8.615 148.258 8.54 148.538 8.54C148.788 8.54 149.043 8.595 149.303 8.705C149.573 8.805 149.903 8.955 150.293 9.155C150.613 9.325 150.888 9.46 151.118 9.56C151.348 9.65 151.558 9.695 151.748 9.695C151.878 9.695 151.983 9.67 152.063 9.62C152.153 9.56 152.198 9.49 152.198 9.41C152.198 9.32 152.148 9.205 152.048 9.065C151.988 8.985 151.943 8.915 151.913 8.855C151.883 8.795 151.868 8.725 151.868 8.645C151.868 8.415 151.998 8.3 152.258 8.3ZM143.348 9.35C143.298 9.67 143.273 9.94 143.273 10.16C143.273 10.27 143.283 10.425 143.303 10.625C143.573 10.405 143.853 10.185 144.143 9.965C145.053 9.265 145.763 8.685 146.273 8.225C146.023 7.695 145.613 7.43 145.043 7.43C144.653 7.43 144.303 7.615 143.993 7.985C143.693 8.345 143.478 8.8 143.348 9.35Z" fill="black"/>
<path d="M11.5211 32.82C11.5611 32.82 11.5811 32.85 11.5811 32.91C11.5811 32.97 11.5611 33 11.5211 33C11.3311 33 11.0361 32.99 10.6361 32.97C10.2361 32.95 9.94613 32.94 9.76613 32.94C9.54613 32.94 9.26613 32.95 8.92613 32.97C8.60613 32.99 8.36113 33 8.19113 33C8.15113 33 8.13113 32.97 8.13113 32.91C8.13113 32.85 8.15113 32.82 8.19113 32.82C8.56113 32.82 8.83113 32.785 9.00113 32.715C9.17113 32.645 9.25613 32.525 9.25613 32.355C9.25613 32.215 9.19113 32 9.06113 31.71L7.72613 28.875H4.15613L3.21113 31.095C3.07113 31.435 3.00113 31.71 3.00113 31.92C3.00113 32.23 3.12113 32.46 3.36113 32.61C3.61113 32.75 3.98113 32.82 4.47113 32.82C4.52113 32.82 4.54613 32.85 4.54613 32.91C4.54613 32.97 4.52113 33 4.47113 33C4.29113 33 4.03113 32.99 3.69113 32.97C3.31113 32.95 2.98113 32.94 2.70113 32.94C2.44113 32.94 2.14113 32.95 1.80113 32.97C1.50113 32.99 1.25113 33 1.05113 33C1.00113 33 0.976133 32.97 0.976133 32.91C0.976133 32.85 1.00113 32.82 1.05113 32.82C1.33113 32.82 1.56613 32.77 1.75613 32.67C1.95613 32.56 2.14113 32.375 2.31113 32.115C2.49113 31.845 2.68613 31.46 2.89613 30.96L6.06113 23.49C6.08113 23.46 6.11613 23.445 6.16613 23.445C6.21613 23.445 6.24613 23.46 6.25613 23.49L9.79613 30.945C10.1361 31.685 10.4261 32.185 10.6661 32.445C10.9061 32.695 11.1911 32.82 11.5211 32.82ZM4.27613 28.575H7.59113L5.83613 24.87L4.27613 28.575ZM28.2784 23.625C28.3084 23.625 28.3234 23.655 28.3234 23.715C28.3234 23.775 28.3084 23.805 28.2784 23.805C27.8584 23.805 27.5534 23.92 27.3634 24.15C27.1734 24.38 27.0784 24.755 27.0784 25.275V33.18C27.0784 33.2 27.0534 33.215 27.0034 33.225C26.9534 33.235 26.9184 33.23 26.8984 33.21L19.9984 24.855L19.8634 24.705V31.365C19.8634 31.885 19.9534 32.26 20.1334 32.49C20.3234 32.71 20.6234 32.82 21.0334 32.82C21.0634 32.82 21.0784 32.85 21.0784 32.91C21.0784 32.97 21.0634 33 21.0334 33C20.7834 33 20.5934 32.995 20.4634 32.985L19.7134 32.97L18.9484 32.985C18.8084 32.995 18.6034 33 18.3334 33C18.3134 33 18.3034 32.97 18.3034 32.91C18.3034 32.85 18.3134 32.82 18.3334 32.82C18.7634 32.82 19.0684 32.71 19.2484 32.49C19.4284 32.26 19.5184 31.885 19.5184 31.365V24.345C19.1284 23.985 18.7334 23.805 18.3334 23.805C18.3034 23.805 18.2884 23.775 18.2884 23.715C18.2884 23.655 18.3034 23.625 18.3334 23.625L18.8884 23.64C19.0084 23.65 19.1734 23.655 19.3834 23.655C19.6034 23.655 19.7834 23.65 19.9234 23.64C20.0634 23.63 20.1734 23.625 20.2534 23.625C20.3334 23.625 20.3884 23.645 20.4184 23.685C20.4584 23.715 20.5184 23.79 20.5984 23.91C20.7184 24.09 20.8384 24.255 20.9584 24.405L26.7334 31.5V25.275C26.7334 24.755 26.6434 24.38 26.4634 24.15C26.2934 23.92 26.0034 23.805 25.5934 23.805C25.5734 23.805 25.5634 23.775 25.5634 23.715C25.5634 23.655 25.5734 23.625 25.5934 23.625L26.1784 23.64C26.4784 23.66 26.7234 23.67 26.9134 23.67C27.0934 23.67 27.3434 23.66 27.6634 23.64L28.2784 23.625ZM45.3268 23.625C45.3568 23.625 45.3718 23.655 45.3718 23.715C45.3718 23.775 45.3568 23.805 45.3268 23.805C44.9068 23.805 44.6018 23.92 44.4118 24.15C44.2218 24.38 44.1268 24.755 44.1268 25.275V33.18C44.1268 33.2 44.1018 33.215 44.0518 33.225C44.0018 33.235 43.9668 33.23 43.9468 33.21L37.0468 24.855L36.9118 24.705V31.365C36.9118 31.885 37.0018 32.26 37.1818 32.49C37.3718 32.71 37.6718 32.82 38.0818 32.82C38.1118 32.82 38.1268 32.85 38.1268 32.91C38.1268 32.97 38.1118 33 38.0818 33C37.8318 33 37.6418 32.995 37.5118 32.985L36.7618 32.97L35.9968 32.985C35.8568 32.995 35.6518 33 35.3818 33C35.3618 33 35.3518 32.97 35.3518 32.91C35.3518 32.85 35.3618 32.82 35.3818 32.82C35.8118 32.82 36.1168 32.71 36.2968 32.49C36.4768 32.26 36.5668 31.885 36.5668 31.365V24.345C36.1768 23.985 35.7818 23.805 35.3818 23.805C35.3518 23.805 35.3368 23.775 35.3368 23.715C35.3368 23.655 35.3518 23.625 35.3818 23.625L35.9368 23.64C36.0568 23.65 36.2218 23.655 36.4318 23.655C36.6518 23.655 36.8318 23.65 36.9718 23.64C37.1118 23.63 37.2218 23.625 37.3018 23.625C37.3818 23.625 37.4368 23.645 37.4668 23.685C37.5068 23.715 37.5668 23.79 37.6468 23.91C37.7668 24.09 37.8868 24.255 38.0068 24.405L43.7818 31.5V25.275C43.7818 24.755 43.6918 24.38 43.5118 24.15C43.3418 23.92 43.0518 23.805 42.6418 23.805C42.6218 23.805 42.6118 23.775 42.6118 23.715C42.6118 23.655 42.6218 23.625 42.6418 23.625L43.2268 23.64C43.5268 23.66 43.7718 23.67 43.9618 23.67C44.1418 23.67 44.3918 23.66 44.7118 23.64L45.3268 23.625ZM71.0959 32.82C71.1259 32.82 71.1409 32.85 71.1409 32.91C71.1409 32.97 71.1259 33 71.0959 33H69.4159C69.3359 33 69.1909 33 68.9809 33C68.7809 33.01 68.4959 32.76 68.1259 32.25C67.7559 31.73 67.4009 31.255 67.0609 30.825L64.7659 27.93L64.2709 28.41V31.785C64.2709 32.085 64.3009 32.31 64.3609 32.46C64.4209 32.6 64.5359 32.695 64.7059 32.745C64.8859 32.795 65.1659 32.82 65.5459 32.82C65.5759 32.82 65.5909 32.85 65.5909 32.91C65.5909 32.97 65.5759 33 65.5459 33C65.2459 33 65.0059 32.995 64.8259 32.985L63.7759 32.97L62.7559 32.985C62.5759 32.995 62.3259 33 62.0059 33C61.9859 33 61.9759 32.97 61.9759 32.91C61.9759 32.85 61.9859 32.82 62.0059 32.82C62.3859 32.82 62.6609 32.795 62.8309 32.745C63.0109 32.695 63.1309 32.6 63.1909 32.46C63.2609 32.31 63.2959 32.085 63.2959 31.785V24.84C63.2959 24.54 63.2659 24.32 63.2059 24.18C63.1459 24.04 63.0259 23.945 62.8459 23.895C62.6759 23.835 62.4009 23.805 62.0209 23.805C62.0009 23.805 61.9909 23.775 61.9909 23.715C61.9909 23.655 62.0009 23.625 62.0209 23.625L62.7709 23.64C63.1909 23.66 63.5259 23.67 63.7759 23.67C64.0659 23.67 64.4209 23.66 64.8409 23.64L65.5459 23.625C65.5759 23.625 65.5909 23.655 65.5909 23.715C65.5909 23.775 65.5759 23.805 65.5459 23.805C65.1759 23.805 64.9009 23.835 64.7209 23.895C64.5509 23.955 64.4309 24.06 64.3609 24.21C64.3009 24.35 64.2709 24.57 64.2709 24.87V28.035L67.4809 24.84C67.8109 24.51 67.9759 24.265 67.9759 24.105C67.9759 23.905 67.6809 23.805 67.0909 23.805C67.0709 23.805 67.0609 23.775 67.0609 23.715C67.0609 23.655 67.0709 23.625 67.0909 23.625L67.7359 23.64C68.1359 23.66 68.5009 23.67 68.8309 23.67C69.1609 23.67 69.5059 23.66 69.8659 23.64L70.4209 23.625C70.4509 23.625 70.4659 23.655 70.4659 23.715C70.4659 23.775 70.4509 23.805 70.4209 23.805C70.0109 23.805 69.5759 23.895 69.1159 24.075C68.6559 24.255 68.2259 24.54 67.8259 24.93L65.4559 27.255L67.6159 30.015C68.3459 30.965 68.9009 31.635 69.2809 32.025C69.6709 32.415 69.9709 32.645 70.1809 32.715C70.3909 32.785 70.6959 32.82 71.0959 32.82ZM87.6317 32.82C87.6517 32.82 87.6617 32.85 87.6617 32.91C87.6617 32.97 87.6517 33 87.6317 33H85.6967C85.4467 33 84.9767 32.585 84.2867 31.755C83.5967 30.925 82.7767 29.785 81.8267 28.335C81.5567 28.395 81.2767 28.425 80.9867 28.425C80.9267 28.425 80.7017 28.41 80.3117 28.38V31.785C80.3117 32.095 80.3417 32.32 80.4017 32.46C80.4617 32.6 80.5767 32.695 80.7467 32.745C80.9267 32.795 81.2067 32.82 81.5867 32.82C81.6167 32.82 81.6317 32.85 81.6317 32.91C81.6317 32.97 81.6167 33 81.5867 33C81.2767 33 81.0317 32.995 80.8517 32.985L79.8167 32.97L78.7967 32.985C78.6167 32.995 78.3617 33 78.0317 33C78.0117 33 78.0017 32.97 78.0017 32.91C78.0017 32.85 78.0117 32.82 78.0317 32.82C78.4117 32.82 78.6917 32.795 78.8717 32.745C79.0517 32.695 79.1717 32.6 79.2317 32.46C79.3017 32.31 79.3367 32.085 79.3367 31.785V24.84C79.3367 24.54 79.3067 24.32 79.2467 24.18C79.1867 24.04 79.0667 23.945 78.8867 23.895C78.7167 23.835 78.4417 23.805 78.0617 23.805C78.0317 23.805 78.0167 23.775 78.0167 23.715C78.0167 23.655 78.0317 23.625 78.0617 23.625L78.7967 23.64C79.2167 23.66 79.5567 23.67 79.8167 23.67C80.0367 23.67 80.2417 23.665 80.4317 23.655C80.6217 23.645 80.7817 23.635 80.9117 23.625C81.2817 23.595 81.6167 23.58 81.9167 23.58C82.7067 23.58 83.3167 23.76 83.7467 24.12C84.1767 24.48 84.3917 24.96 84.3917 25.56C84.3917 26.1 84.2317 26.59 83.9117 27.03C83.6017 27.46 83.1867 27.8 82.6667 28.05C83.5067 29.26 84.2117 30.21 84.7817 30.9C85.3617 31.58 85.8717 32.07 86.3117 32.37C86.7617 32.67 87.2017 32.82 87.6317 32.82ZM80.3117 28.02C80.5617 28.06 80.8567 28.08 81.1967 28.08C81.9767 28.08 82.5317 27.91 82.8617 27.57C83.2017 27.23 83.3717 26.705 83.3717 25.995C83.3717 25.215 83.1967 24.655 82.8467 24.315C82.5067 23.975 82.0067 23.805 81.3467 23.805C80.9567 23.805 80.6867 23.875 80.5367 24.015C80.3867 24.155 80.3117 24.44 80.3117 24.87V28.02ZM96.6145 31.785C96.6145 32.085 96.6445 32.31 96.7045 32.46C96.7645 32.6 96.8795 32.695 97.0495 32.745C97.2295 32.795 97.5095 32.82 97.8895 32.82C97.9195 32.82 97.9345 32.85 97.9345 32.91C97.9345 32.97 97.9195 33 97.8895 33C97.5895 33 97.3495 32.995 97.1695 32.985L96.1045 32.97L95.0695 32.985C94.8895 32.995 94.6445 33 94.3345 33C94.3045 33 94.2895 32.97 94.2895 32.91C94.2895 32.85 94.3045 32.82 94.3345 32.82C94.7145 32.82 94.9895 32.795 95.1595 32.745C95.3395 32.695 95.4595 32.6 95.5195 32.46C95.5895 32.31 95.6245 32.085 95.6245 31.785V24.84C95.6245 24.54 95.5895 24.32 95.5195 24.18C95.4595 24.04 95.3395 23.945 95.1595 23.895C94.9895 23.835 94.7145 23.805 94.3345 23.805C94.3045 23.805 94.2895 23.775 94.2895 23.715C94.2895 23.655 94.3045 23.625 94.3345 23.625L95.0695 23.64C95.4895 23.66 95.8345 23.67 96.1045 23.67C96.4045 23.67 96.7645 23.66 97.1845 23.64L97.8895 23.625C97.9195 23.625 97.9345 23.655 97.9345 23.715C97.9345 23.775 97.9195 23.805 97.8895 23.805C97.5195 23.805 97.2445 23.835 97.0645 23.895C96.8945 23.955 96.7745 24.06 96.7045 24.21C96.6445 24.35 96.6145 24.57 96.6145 24.87V31.785ZM106.935 25.38C106.935 25.77 107.03 26.11 107.22 26.4C107.41 26.69 107.64 26.935 107.91 27.135C108.19 27.325 108.57 27.565 109.05 27.855C109.58 28.175 109.985 28.44 110.265 28.65C110.555 28.86 110.8 29.13 111 29.46C111.21 29.78 111.315 30.165 111.315 30.615C111.315 31.095 111.195 31.53 110.955 31.92C110.715 32.31 110.36 32.62 109.89 32.85C109.43 33.07 108.875 33.18 108.225 33.18C107.455 33.18 106.75 33.005 106.11 32.655C106.06 32.625 106.025 32.59 106.005 32.55C105.995 32.51 105.985 32.45 105.975 32.37L105.78 30.33C105.77 30.29 105.79 30.265 105.84 30.255C105.9 30.245 105.935 30.26 105.945 30.3C106.105 31.02 106.4 31.64 106.83 32.16C107.27 32.68 107.85 32.94 108.57 32.94C109.07 32.94 109.49 32.805 109.83 32.535C110.18 32.255 110.355 31.815 110.355 31.215C110.355 30.765 110.255 30.375 110.055 30.045C109.855 29.715 109.61 29.445 109.32 29.235C109.04 29.015 108.655 28.76 108.165 28.47C107.685 28.18 107.305 27.93 107.025 27.72C106.755 27.51 106.525 27.245 106.335 26.925C106.145 26.605 106.05 26.23 106.05 25.8C106.05 25.3 106.18 24.875 106.44 24.525C106.71 24.165 107.055 23.9 107.475 23.73C107.905 23.55 108.36 23.46 108.84 23.46C109.43 23.46 110.015 23.58 110.595 23.82C110.745 23.87 110.82 23.955 110.82 24.075L110.925 25.8C110.925 25.84 110.9 25.86 110.85 25.86C110.8 25.86 110.77 25.84 110.76 25.8C110.68 25.28 110.465 24.8 110.115 24.36C109.765 23.91 109.26 23.685 108.6 23.685C108.04 23.685 107.62 23.85 107.34 24.18C107.07 24.5 106.935 24.9 106.935 25.38ZM121.113 23.895C120.483 23.895 120.008 24.055 119.688 24.375C119.378 24.695 119.153 25.24 119.013 26.01C119.013 26.03 118.983 26.04 118.923 26.04C118.873 26.04 118.848 26.03 118.848 26.01C118.888 25.65 118.933 25.18 118.983 24.6C119.033 24.02 119.058 23.585 119.058 23.295C119.058 23.245 119.083 23.22 119.133 23.22C119.193 23.22 119.223 23.245 119.223 23.295C119.223 23.515 119.493 23.625 120.033 23.625C120.883 23.655 121.888 23.67 123.048 23.67C123.638 23.67 124.263 23.66 124.923 23.64L125.943 23.625C126.303 23.625 126.568 23.6 126.738 23.55C126.918 23.5 127.033 23.4 127.083 23.25C127.093 23.21 127.123 23.19 127.173 23.19C127.223 23.19 127.248 23.21 127.248 23.25C127.218 23.54 127.188 23.98 127.158 24.57C127.128 25.16 127.113 25.64 127.113 26.01C127.113 26.03 127.083 26.04 127.023 26.04C126.963 26.04 126.933 26.03 126.933 26.01C126.903 25.23 126.743 24.685 126.453 24.375C126.163 24.055 125.683 23.895 125.013 23.895C124.563 23.895 124.243 23.915 124.053 23.955C123.863 23.995 123.733 24.08 123.663 24.21C123.593 24.34 123.558 24.56 123.558 24.87V31.785C123.558 32.095 123.593 32.32 123.663 32.46C123.733 32.6 123.868 32.695 124.068 32.745C124.268 32.795 124.583 32.82 125.013 32.82C125.043 32.82 125.058 32.85 125.058 32.91C125.058 32.97 125.043 33 125.013 33C124.683 33 124.418 32.995 124.218 32.985L123.048 32.97L121.923 32.985C121.723 32.995 121.448 33 121.098 33C121.078 33 121.068 32.97 121.068 32.91C121.068 32.85 121.078 32.82 121.098 32.82C121.528 32.82 121.843 32.795 122.043 32.745C122.243 32.695 122.378 32.6 122.448 32.46C122.528 32.31 122.568 32.085 122.568 31.785V24.84C122.568 24.53 122.533 24.315 122.463 24.195C122.393 24.065 122.263 23.985 122.073 23.955C121.883 23.915 121.563 23.895 121.113 23.895ZM136.92 31.785C136.92 32.085 136.95 32.31 137.01 32.46C137.07 32.6 137.185 32.695 137.355 32.745C137.535 32.795 137.815 32.82 138.195 32.82C138.225 32.82 138.24 32.85 138.24 32.91C138.24 32.97 138.225 33 138.195 33C137.895 33 137.655 32.995 137.475 32.985L136.41 32.97L135.375 32.985C135.195 32.995 134.95 33 134.64 33C134.61 33 134.595 32.97 134.595 32.91C134.595 32.85 134.61 32.82 134.64 32.82C135.02 32.82 135.295 32.795 135.465 32.745C135.645 32.695 135.765 32.6 135.825 32.46C135.895 32.31 135.93 32.085 135.93 31.785V24.84C135.93 24.54 135.895 24.32 135.825 24.18C135.765 24.04 135.645 23.945 135.465 23.895C135.295 23.835 135.02 23.805 134.64 23.805C134.61 23.805 134.595 23.775 134.595 23.715C134.595 23.655 134.61 23.625 134.64 23.625L135.375 23.64C135.795 23.66 136.14 23.67 136.41 23.67C136.71 23.67 137.07 23.66 137.49 23.64L138.195 23.625C138.225 23.625 138.24 23.655 138.24 23.715C138.24 23.775 138.225 23.805 138.195 23.805C137.825 23.805 137.55 23.835 137.37 23.895C137.2 23.955 137.08 24.06 137.01 24.21C136.95 24.35 136.92 24.57 136.92 24.87V31.785ZM155.625 23.625C155.655 23.625 155.67 23.655 155.67 23.715C155.67 23.775 155.655 23.805 155.625 23.805C155.205 23.805 154.9 23.92 154.71 24.15C154.52 24.38 154.425 24.755 154.425 25.275V33.18C154.425 33.2 154.4 33.215 154.35 33.225C154.3 33.235 154.265 33.23 154.245 33.21L147.345 24.855L147.21 24.705V31.365C147.21 31.885 147.3 32.26 147.48 32.49C147.67 32.71 147.97 32.82 148.38 32.82C148.41 32.82 148.425 32.85 148.425 32.91C148.425 32.97 148.41 33 148.38 33C148.13 33 147.94 32.995 147.81 32.985L147.06 32.97L146.295 32.985C146.155 32.995 145.95 33 145.68 33C145.66 33 145.65 32.97 145.65 32.91C145.65 32.85 145.66 32.82 145.68 32.82C146.11 32.82 146.415 32.71 146.595 32.49C146.775 32.26 146.865 31.885 146.865 31.365V24.345C146.475 23.985 146.08 23.805 145.68 23.805C145.65 23.805 145.635 23.775 145.635 23.715C145.635 23.655 145.65 23.625 145.68 23.625L146.235 23.64C146.355 23.65 146.52 23.655 146.73 23.655C146.95 23.655 147.13 23.65 147.27 23.64C147.41 23.63 147.52 23.625 147.6 23.625C147.68 23.625 147.735 23.645 147.765 23.685C147.805 23.715 147.865 23.79 147.945 23.91C148.065 24.09 148.185 24.255 148.305 24.405L154.08 31.5V25.275C154.08 24.755 153.99 24.38 153.81 24.15C153.64 23.92 153.35 23.805 152.94 23.805C152.92 23.805 152.91 23.775 152.91 23.715C152.91 23.655 152.92 23.625 152.94 23.625L153.525 23.64C153.825 23.66 154.07 23.67 154.26 23.67C154.44 23.67 154.69 23.66 155.01 23.64L155.625 23.625Z" fill="black"/>
</svg>
